<?xml version="1.0" encoding="UTF-8" standalone="no"?>
<!-- Created with Inkscape (http://www.inkscape.org/) -->

<svg
   version="1.1"
   id="svg2"
   xml:space="preserve"
   width="415.74799"
   height="415.74799"
   viewBox="0 0 415.74799 415.74799"
   sodipodi:docname="LOGO sitehasa.ai"
   xmlns:inkscape="http://www.inkscape.org/namespaces/inkscape"
   xmlns:sodipodi="http://sodipodi.sourceforge.net/DTD/sodipodi-0.dtd"
   xmlns="http://www.w3.org/2000/svg"
   xmlns:svg="http://www.w3.org/2000/svg"><defs
     id="defs6"><clipPath
       clipPathUnits="userSpaceOnUse"
       id="clipPath16"><path
         d="M 0,311.811 H 311.811 V 0 H 0 Z"
         id="path14" /></clipPath></defs><sodipodi:namedview
     id="namedview4"
     pagecolor="#ffffff"
     bordercolor="#666666"
     borderopacity="1.0"
     inkscape:pageshadow="2"
     inkscape:pageopacity="0.0"
     inkscape:pagecheckerboard="0" /><g
     id="g8"
     inkscape:groupmode="layer"
     inkscape:label="LOGO sitehasa"
     transform="matrix(1.3333333,0,0,-1.3333333,0,415.748)"><g
       id="g10"><g
         id="g12"
         clip-path="url(#clipPath16)"><g
           id="g18"
           transform="translate(253.0283,112.8384)"><path
             d="m 0,0 c 1.093,-2.912 2.188,-5.823 3.284,-8.733 h -18.038 c -3.109,0.174 -4.875,-1.642 -5.05,-3.358 -0.298,-2.612 1.917,-2.612 3.683,-2.637 2.787,-0.075 5.548,-0.125 8.333,-0.2 3.98,-0.099 7.837,0.324 10.648,-3.159 2.388,-2.911 2.338,-9.775 1.119,-13.136 -2.188,-6.094 -7.637,-5.695 -12.836,-5.745 -5.348,-0.026 -10.698,-0.075 -16.046,-0.099 -1.195,2.86 -2.413,5.746 -3.608,8.631 3.483,-0.025 20.773,-0.946 22.615,0.846 1.244,1.194 1.591,4.179 -0.524,4.628 -5.05,1.02 -13.98,-1.443 -19.478,2.461 -5.498,3.907 -5.474,13.036 -0.174,17.688 3.109,2.711 5.398,2.638 9.179,2.688 C -11.245,-0.102 -5.623,-0.052 0,0"
             style="fill:#14438c;fill-opacity:1;fill-rule:evenodd;stroke:none"
             id="path20" /></g><g
           id="g22"
           transform="translate(58.4858,112.8384)"><path
             d="m 0,0 c 1.095,-2.912 2.189,-5.823 3.284,-8.733 h -18.036 c -3.11,0.174 -4.876,-1.642 -5.05,-3.358 -0.299,-2.612 1.915,-2.612 3.682,-2.637 2.761,-0.075 5.548,-0.125 8.334,-0.2 3.98,-0.099 7.811,0.324 10.647,-3.159 2.364,-2.911 2.313,-9.775 1.119,-13.136 -2.188,-6.094 -7.637,-5.695 -12.836,-5.745 -5.349,-0.026 -10.722,-0.075 -16.071,-0.099 -1.194,2.86 -2.389,5.746 -3.583,8.631 3.484,-0.025 20.774,-0.946 22.614,0.846 1.244,1.194 1.592,4.179 -0.547,4.628 -5.05,1.02 -13.956,-1.443 -19.479,2.461 -5.498,3.907 -5.449,13.036 -0.174,17.688 3.134,2.711 5.423,2.638 9.204,2.688 C -11.269,-0.102 -5.622,-0.052 0,0"
             style="fill:#14438c;fill-opacity:1;fill-rule:evenodd;stroke:none"
             id="path24" /></g><path
           d="M 67.043,112.912 H 77.89 V 75.521 H 67.043 Z"
           style="fill:#14438c;fill-opacity:1;fill-rule:evenodd;stroke:none"
           id="path26" /><g
           id="g28"
           transform="translate(91.6479,112.9116)"><path
             d="M 0,0 H 10.846 21.245 V -8.956 H 10.846 V -37.391 H 0 V -8.956 H -10.399 V 0 Z"
             style="fill:#14438c;fill-opacity:1;fill-rule:evenodd;stroke:none"
             id="path30" /></g><g
           id="g32"
           transform="translate(145.5322,112.8384)"><path
             d="m 0,0 v -8.658 h -9.553 c -4.826,0 -9.28,-0.075 -10.25,-6.095 L -3.359,-14.678 0,-23.012 h -19.504 c -0.225,-1.22 0.075,-2.314 0.82,-3.284 2.215,-2.837 4.454,-2.687 7.589,-2.687 H -0.15 v -7.935 h -11.02 c -5.373,0 -10.001,-0.175 -14.007,4.179 -7.189,7.86 -7.438,24.654 2.489,30.648 C -17.215,1.243 -6.568,0 0,0"
             style="fill:#14438c;fill-opacity:1;fill-rule:evenodd;stroke:none"
             id="path34" /></g><g
           id="g36"
           transform="translate(171.8271,112.9116)"><path
             d="M 0,0 H 10.847 V -14.528 -23.16 -37.391 H 0 v 14.231 h -9.329 v -14.231 h -10.846 v 14.231 h -0.995 l -2.538,8.632 h 3.533 V 0 H -9.329 V -14.528 H 0 Z"
             style="fill:#14438c;fill-opacity:1;fill-rule:evenodd;stroke:none"
             id="path38" /></g><g
           id="g40"
           transform="translate(183.9687,75.6196)"><path
             d="m 0,0 15.672,36.895 h 8.334 L 39.803,0.151 H 29.578 L 27.041,5.873 H 19.95 l -2.762,8.109 h 7.265 L 19.95,25.128 10.248,-0.099 Z"
             style="fill:#14438c;fill-opacity:1;fill-rule:evenodd;stroke:none"
             id="path42" /></g><g
           id="g44"
           transform="translate(257.6045,75.6196)"><path
             d="m 0,0 15.674,36.895 h 8.308 L 39.805,0.151 H 29.58 l -2.538,5.722 h -7.09 l -2.762,8.109 h 7.265 L 19.952,25.128 10.225,-0.099 Z"
             style="fill:#14438c;fill-opacity:1;fill-rule:evenodd;stroke:none"
             id="path46" /></g><g
           id="g48"
           transform="translate(162.3574,236.2905)"><path
             d="m 0,0 c 8.737,-13.797 17.032,-27.958 26.816,-41.025 9.055,-12.1 12.163,-21.456 11.466,-29.068 -9.595,29.226 -32.731,28.862 -52.063,48.494 C -9.198,-14.399 -4.599,-7.2 0,0"
             style="fill:#14438c;fill-opacity:1;fill-rule:evenodd;stroke:none"
             id="path50" /></g><g
           id="g52"
           transform="translate(191.0762,141.3315)"><path
             d="m 0,0 c 5.074,7.738 5.171,16.176 1.11,25.214 -6.296,12.513 -15.73,18.999 -25.959,23.994 -9.198,4.884 -15.383,9.325 -19.68,13.495 -2.934,2.823 -7.041,7.057 -5.646,11.513 1.078,3.442 5.328,5.36 9.784,6.566 -0.237,-0.73 -0.491,-1.475 -0.729,-2.204 -1.332,-0.365 -2.443,-0.841 -3.235,-1.444 -3.727,-2.806 1.205,-6.961 3.441,-9.102 6.235,-5.975 14.054,-10 21.478,-14.264 C -11.757,49.359 -4.915,44.407 0.571,37.333 1.36,36.316 2.109,35.269 2.81,34.189 7.222,27.397 9.341,19.572 8.326,11.497 7.263,5.614 4.329,1.982 0,0"
             style="fill:#00a19c;fill-opacity:1;fill-rule:evenodd;stroke:none"
             id="path54" /></g><g
           id="g56"
           transform="translate(164.3721,131.3257)"><path
             d="m 0,0 c -0.889,-0.144 -1.776,-0.285 -2.665,-0.412 15.05,-10.357 26.214,10.688 21.456,24.754 -1.776,5.233 -5.36,9.863 -10.228,14.066 -3.473,2.886 -7.294,5.519 -11.307,8.024 -6.946,4.345 -14.479,7.945 -20.775,13.21 -4.487,3.758 -9.197,8.928 -6.342,15.24 -1.222,-0.904 -2.237,-1.935 -2.95,-3.172 -3.029,-5.186 0.666,-12.1 4.313,-15.985 4.979,-5.297 12.322,-8.5 18.728,-12.195 4.012,-2.315 7.771,-4.678 11.053,-7.12 C 7.151,31.811 12.084,26.404 13.527,18.03 14.065,14.113 13.954,10.974 13.415,8.324 12.432,3.521 10.402,-0.492 5.074,-1.11 3.377,-1.317 1.681,-0.968 0,0"
             style="fill:#00a19c;fill-opacity:1;fill-rule:evenodd;stroke:none"
             id="path58" /></g><g
           id="g60"
           transform="translate(139.1885,214.4062)"><path
             d="m 0,0 c -1.982,-8.468 3.521,-12.417 9.515,-17.016 9.737,-7.485 20.933,-12.227 30.163,-20.362 4.471,-3.933 7.992,-8.151 10.371,-12.703 1.888,-3.869 2.695,-7.373 2.805,-10.656 0.239,-6.723 -2.583,-19.473 -11.004,-20.045 2.87,2.078 5.329,4.757 6.248,9.77 1.538,8.514 -1.396,17.221 -6.692,23.913 -3.52,4.44 -7.945,7.786 -12.765,10.625 -1.524,0.888 -3.014,1.824 -4.504,2.744 C 14.146,-27.562 -13.971,-14.289 0,0"
             style="fill:#00a19c;fill-opacity:1;fill-rule:evenodd;stroke:none"
             id="path62" /></g><g
           id="g64"
           transform="translate(158.2686,132.0405)"><path
             d="m 0,0 c 4.214,-0.49 8.526,-0.349 12.776,0.414 0.427,0.076 0.86,0.161 1.242,0.366 2.117,1.137 3.055,5.265 3.495,7.414 2.49,12.189 -5.795,23.046 -15.538,29.226 -4.812,3.053 -9.958,5.561 -14.881,8.423 -4.93,2.867 -9.461,6.245 -12.995,10.801 h -0.409 c -0.639,0 -2.414,-3.231 -2.767,-3.79 -0.856,-1.356 -1.614,-2.775 -2.257,-4.245 -1.261,-2.882 -2.062,-5.954 -2.433,-9.077 C -35.2,27.464 -29.477,15.657 -20.109,8.225 -14.239,3.567 -7.265,0.845 0,0"
             style="fill:#14438c;fill-opacity:1;fill-rule:nonzero;stroke:none"
             id="path66" /></g></g></g></g></svg>
