<svg width="200" height="283" viewBox="0 0 200 283" fill="none" xmlns="http://www.w3.org/2000/svg">
<path fill-rule="evenodd" clip-rule="evenodd" d="M99.6056 -5.25949e-05C122.462 36.0937 144.162 73.1397 169.758 107.324C193.446 138.978 201.577 163.454 199.754 183.367C174.653 106.91 114.127 107.863 63.5537 56.5042C75.5431 37.6686 87.5744 18.8356 99.6056 -5.25949e-05Z" fill="#373981"/>
<path fill-rule="evenodd" clip-rule="evenodd" d="M174.736 248.419C188.01 228.176 188.263 206.101 177.64 182.457C161.169 149.723 136.489 132.755 109.729 119.688C85.6667 106.911 69.4864 95.2928 58.2452 84.3838C50.5696 76.9987 39.8255 65.9223 43.4749 54.2651C46.295 45.2606 57.4133 40.243 69.0704 37.0881C68.4504 38.9978 67.7859 40.9467 67.1633 42.8538C63.6787 43.8087 60.7723 45.054 58.7004 46.6314C48.9503 53.9721 61.8527 64.8418 67.7022 70.4428C84.0133 86.0738 104.468 96.6034 123.89 107.758C143.979 119.292 161.878 132.247 176.229 150.753C178.294 153.414 180.253 156.153 182.087 158.978C193.629 176.746 199.172 197.217 196.517 218.342C193.736 233.732 186.061 243.234 174.736 248.419Z" fill="#373981"/>
<path fill-rule="evenodd" clip-rule="evenodd" d="M104.876 274.594C102.551 274.971 100.23 275.34 97.9045 275.672C137.276 302.767 166.482 247.712 154.035 210.914C149.389 197.224 140.013 185.112 127.278 174.117C118.192 166.567 108.196 159.679 97.6979 153.125C79.5267 141.759 59.8199 132.341 43.3492 118.567C31.611 108.736 19.2893 95.211 26.7582 78.6984C23.5614 81.0634 20.9061 83.7605 19.0408 86.9966C11.1168 100.563 20.7831 118.651 30.3239 128.814C43.3492 142.672 62.559 151.051 79.3174 160.717C89.8131 166.773 99.6468 172.955 108.233 179.343C123.584 191.375 136.489 205.52 140.264 227.427C141.671 237.674 141.381 245.886 139.971 252.818C137.399 265.383 132.089 275.881 118.15 277.498C113.711 278.04 109.274 277.127 104.876 274.594Z" fill="#373981"/>
<path fill-rule="evenodd" clip-rule="evenodd" d="M38.9944 57.2508C33.8094 79.4036 48.2055 89.7344 63.8862 101.766C89.3588 121.347 118.648 133.752 142.794 155.034C154.491 165.323 163.702 176.357 169.926 188.266C174.865 198.387 176.976 207.554 177.264 216.142C177.889 233.73 170.506 267.085 148.476 268.581C155.985 263.145 162.417 256.137 164.822 243.022C168.845 220.749 161.17 197.971 147.315 180.465C138.106 168.849 126.53 160.096 113.921 152.669C109.934 150.346 106.036 147.897 102.138 145.49C76.0012 129.355 2.44543 94.6317 38.9944 57.2508Z" fill="#373981"/>
<path d="M88.9091 272.724C99.9332 274.006 111.214 273.637 122.332 271.641C123.449 271.442 124.582 271.22 125.581 270.684C131.119 267.709 133.573 256.91 134.724 251.288C141.238 219.401 119.564 190.999 94.0758 174.831C81.4873 166.845 68.0251 160.283 55.1462 152.796C42.2491 145.296 30.3957 136.459 21.1505 124.54H20.0806C18.4089 124.54 13.7654 132.993 12.8419 134.455C10.6026 138.002 8.6196 141.715 6.93748 145.56C3.63862 153.1 1.54316 161.136 0.572606 169.306C-3.17621 200.877 11.7955 231.765 36.3027 251.207C51.659 263.393 69.9034 270.514 88.9091 272.724Z" fill="#373981"/>
</svg>
