<svg width="489" height="145" viewBox="0 0 489 145" fill="none" xmlns="http://www.w3.org/2000/svg">
<path fill-rule="evenodd" clip-rule="evenodd" d="M429.371 47.2967C430.828 51.1794 432.288 55.0607 433.75 58.9407H409.699C405.554 58.7087 403.199 61.13 402.966 63.418C402.568 66.9007 405.522 66.9007 407.876 66.934C411.592 67.034 415.274 67.1007 418.987 67.2007C424.294 67.3327 429.436 66.7687 433.184 71.4127C436.368 75.294 436.302 84.446 434.676 88.9274C431.759 97.0527 424.494 96.5207 417.562 96.5874C410.431 96.622 403.298 96.6874 396.167 96.7194C394.574 92.906 392.95 89.058 391.356 85.2114C396 85.2447 419.054 86.4727 421.51 84.0834C423.168 82.4914 423.631 78.5114 420.811 77.9127C414.078 76.5527 402.171 79.8367 394.84 74.6314C387.51 69.422 387.542 57.25 394.608 51.0474C398.754 47.4327 401.806 47.53 406.847 47.4634C414.378 47.4327 421.874 47.366 429.371 47.2967Z" fill="#14438C"/>
<path fill-rule="evenodd" clip-rule="evenodd" d="M169.981 47.2967C171.441 51.1794 172.9 55.0607 174.36 58.9407H150.312C146.165 58.7087 143.81 61.13 143.578 63.418C143.18 66.9007 146.132 66.9007 148.488 66.934C152.169 67.034 155.885 67.1007 159.6 67.2007C164.906 67.3327 170.014 66.7687 173.796 71.4127C176.948 75.294 176.88 84.446 175.288 88.9274C172.37 97.0527 165.105 96.5207 158.173 96.5874C151.041 96.622 143.877 96.6874 136.745 96.7194C135.153 92.906 133.56 89.058 131.968 85.2114C136.613 85.2447 159.666 86.4727 162.12 84.0834C163.778 82.4914 164.242 78.5114 161.39 77.9127C154.657 76.5527 142.782 79.8367 135.418 74.6314C128.088 69.422 128.153 57.25 135.186 51.0474C139.365 47.4327 142.417 47.53 147.458 47.4634C154.956 47.4327 162.485 47.366 169.981 47.2967Z" fill="#14438C"/>
<path fill-rule="evenodd" clip-rule="evenodd" d="M181.39 47.1987H195.853V97.0533H181.39V47.1987Z" fill="#14438C"/>
<path fill-rule="evenodd" clip-rule="evenodd" d="M214.197 47.1992H228.658H242.524V59.1405H228.658V97.0538H214.197V59.1405H200.332V47.1992H214.197Z" fill="#14438C"/>
<path fill-rule="evenodd" clip-rule="evenodd" d="M286.043 47.2968V58.8408H273.305C266.871 58.8408 260.932 58.9408 259.639 66.9675L281.564 66.8675L286.043 77.9795H260.037C259.737 79.6061 260.137 81.0648 261.131 82.3581C264.084 86.1408 267.069 85.9408 271.249 85.9408H285.843V96.5208H271.149C263.985 96.5208 257.815 96.7541 252.473 90.9488C242.888 80.4688 242.556 58.0768 255.792 50.0848C263.089 45.6395 277.285 47.2968 286.043 47.2968Z" fill="#14438C"/>
<path fill-rule="evenodd" clip-rule="evenodd" d="M321.103 47.1992H335.566V66.5698V78.0792V97.0538H321.103V78.0792H308.664V97.0538H294.203V78.0792H292.876L289.492 66.5698H294.203V47.1992H308.664V66.5698H321.103V47.1992Z" fill="#14438C"/>
<path fill-rule="evenodd" clip-rule="evenodd" d="M337.292 96.9218L358.188 47.7285H369.3L390.362 96.7205H376.729L373.346 89.0912H363.892L360.209 78.2792H369.896L363.892 63.4178L350.956 97.0538L337.292 96.9218Z" fill="#14438C"/>
<path fill-rule="evenodd" clip-rule="evenodd" d="M435.473 96.9218L456.371 47.7285H467.449L488.546 96.7205H474.913L471.529 89.0912H462.075L458.393 78.2792H468.079L462.075 63.4178L449.106 97.0538L435.473 96.9218Z" fill="#14438C"/>
<path fill-rule="evenodd" clip-rule="evenodd" d="M50.7663 -6.38204e-05C62.4156 18.3959 73.4756 37.2773 86.5209 54.6999C98.5943 70.8333 102.738 83.3079 101.809 93.4573C89.0156 54.4893 58.1676 54.9746 32.3916 28.7986C38.5023 19.1986 44.6343 9.59994 50.7663 -6.38204e-05Z" fill="#14438C"/>
<path fill-rule="evenodd" clip-rule="evenodd" d="M89.058 126.612C95.8233 116.295 95.9527 105.044 90.538 92.9934C82.1433 76.3094 69.5647 67.6614 55.926 61.0014C43.662 54.4894 35.4153 48.5681 29.686 43.0081C25.774 39.2441 20.298 33.5987 22.158 27.6574C23.5953 23.0681 29.262 20.5107 35.2033 18.9027C34.8873 19.8761 34.5487 20.8694 34.2313 21.8414C32.4553 22.3281 30.974 22.9627 29.918 23.7667C24.9487 27.5081 31.5247 33.0481 34.506 35.9027C42.8193 43.8694 53.2447 49.2361 63.1433 54.9214C73.382 60.8001 82.5047 67.4027 89.8193 76.8347C90.8713 78.1907 91.87 79.5867 92.8047 81.0267C98.6873 90.0827 101.513 100.516 100.159 111.283C98.742 119.127 94.83 123.969 89.058 126.612Z" fill="#00A19C"/>
<path fill-rule="evenodd" clip-rule="evenodd" d="M53.4526 139.953C52.2672 140.145 51.0846 140.333 49.8992 140.503C69.9659 154.312 84.8512 126.252 78.5072 107.497C76.1392 100.52 71.3606 94.3465 64.8699 88.7425C60.2392 84.8945 55.1446 81.3839 49.7939 78.0439C40.5326 72.2505 30.4886 67.4505 22.0939 60.4305C16.1112 55.4199 9.83124 48.5265 13.6379 40.1105C12.0086 41.3159 10.6552 42.6905 9.70458 44.3399C5.66591 51.2545 10.5926 60.4732 15.4552 65.6532C22.0939 72.7159 31.8846 76.9865 40.4259 81.9132C45.7752 84.9999 50.7872 88.1505 55.1632 91.4065C62.9872 97.5385 69.5646 104.748 71.4886 115.913C72.2059 121.136 72.0579 125.321 71.3392 128.855C70.0286 135.259 67.3219 140.609 60.2179 141.433C57.9552 141.709 55.6939 141.244 53.4526 139.953Z" fill="#00A19C"/>
<path fill-rule="evenodd" clip-rule="evenodd" d="M19.8741 29.1791C17.2314 40.4698 24.5688 45.7351 32.5608 51.8671C45.5434 61.8471 60.4714 68.1698 72.7781 79.0164C78.7394 84.2604 83.4341 89.8844 86.6061 95.9538C89.1234 101.112 90.1994 105.784 90.3461 110.162C90.6648 119.126 86.9021 136.126 75.6741 136.888C79.5008 134.118 82.7794 130.546 84.0048 123.862C86.0554 112.51 82.1434 100.9 75.0821 91.9778C70.3888 86.0578 64.4888 81.5964 58.0621 77.8111C56.0301 76.6271 54.0434 75.3791 52.0568 74.1524C38.7354 65.9284 1.24611 48.2311 19.8741 29.1791Z" fill="#00A19C"/>
<path d="M45.3145 139C50.9332 139.653 56.6825 139.465 62.3492 138.448C62.9185 138.347 63.4958 138.233 64.0052 137.96C66.8278 136.444 68.0785 130.94 68.6652 128.075C71.9852 111.823 60.9385 97.3468 47.9478 89.1068C41.5318 85.0361 34.6705 81.6921 28.1065 77.8761C21.5332 74.0535 15.4918 69.5495 10.7798 63.4748H10.2345C9.38251 63.4748 7.01584 67.7828 6.54517 68.5281C5.40384 70.3361 4.39317 72.2281 3.53584 74.1881C1.85451 78.0308 0.786508 82.1268 0.291842 86.2908C-1.61883 102.381 6.01184 118.124 18.5025 128.033C26.3292 134.244 35.6278 137.873 45.3145 139Z" fill="#14438C"/>
</svg>
