<svg width="685" height="202" viewBox="0 0 685 202" fill="none" xmlns="http://www.w3.org/2000/svg">
<path fill-rule="evenodd" clip-rule="evenodd" d="M601.51 66.2585C603.552 71.6978 605.597 77.1352 607.644 82.5707H573.951C568.144 82.2457 564.846 85.6378 564.519 88.8431C563.962 93.722 568.099 93.722 571.398 93.7687C576.604 93.9087 581.761 94.0021 586.963 94.1422C594.397 94.3272 601.602 93.537 606.852 100.043C611.313 105.48 611.219 118.301 608.942 124.579C604.856 135.962 594.677 135.217 584.966 135.31C574.977 135.359 564.984 135.45 554.994 135.495C552.762 130.153 550.487 124.762 548.255 119.374C554.761 119.42 587.057 121.141 590.497 117.793C592.821 115.563 593.469 109.987 589.518 109.149C580.086 107.244 563.405 111.844 553.136 104.552C542.866 97.2541 542.911 80.2022 552.811 71.5129C558.618 66.449 562.894 66.5854 569.956 66.492C580.506 66.449 591.007 66.3556 601.51 66.2585Z" fill="white"/>
<path fill-rule="evenodd" clip-rule="evenodd" d="M238.128 66.2585C240.173 71.6978 242.217 77.1352 244.262 82.5707H210.573C204.764 82.2457 201.465 85.6378 201.14 88.8431C200.582 93.722 204.717 93.722 208.018 93.7687C213.175 93.9087 218.381 94.0021 223.585 94.1422C231.019 94.3272 238.175 93.537 243.472 100.043C247.888 105.48 247.792 118.301 245.562 124.579C241.475 135.962 231.297 135.217 221.586 135.31C211.595 135.359 201.559 135.45 191.567 135.495C189.337 130.153 187.105 124.762 184.875 119.374C191.382 119.42 223.678 121.141 227.115 117.793C229.439 115.563 230.089 109.987 226.093 109.149C216.66 107.244 200.025 111.844 189.709 104.552C179.439 97.2541 179.531 80.2022 189.384 71.5129C195.238 66.449 199.513 66.5854 206.576 66.492C217.079 66.449 227.627 66.3556 238.128 66.2585Z" fill="white"/>
<path fill-rule="evenodd" clip-rule="evenodd" d="M254.112 66.121H274.372V135.963H254.112V66.121Z" fill="white"/>
<path fill-rule="evenodd" clip-rule="evenodd" d="M300.071 66.1218H320.33H339.754V82.8506H320.33V135.964H300.071V82.8506H280.646V66.1218H300.071Z" fill="white"/>
<path fill-rule="evenodd" clip-rule="evenodd" d="M400.72 66.2585V82.4306H382.876C373.862 82.4306 365.542 82.5707 363.731 93.8153L394.446 93.6752L400.72 109.242H364.289C363.869 111.521 364.429 113.564 365.821 115.376C369.958 120.675 374.14 120.395 379.996 120.395H400.44V135.217H379.856C369.82 135.217 361.175 135.544 353.693 127.411C340.264 112.729 339.799 81.3603 358.342 70.1642C368.565 63.9367 388.452 66.2585 400.72 66.2585Z" fill="white"/>
<path fill-rule="evenodd" clip-rule="evenodd" d="M449.836 66.1218H470.097V93.2584V109.382V135.964H449.836V109.382H432.41V135.964H412.151V109.382H410.293L405.552 93.2584H412.151V66.1218H432.41V93.2584H449.836V66.1218Z" fill="white"/>
<path fill-rule="evenodd" clip-rule="evenodd" d="M472.515 135.779L501.789 66.8634H517.355L546.862 135.497H527.763L523.024 124.809H509.779L504.62 109.662H518.19L509.779 88.8427L491.657 135.964L472.515 135.779Z" fill="white"/>
<path fill-rule="evenodd" clip-rule="evenodd" d="M610.058 135.779L639.335 66.8634H654.853L684.409 135.497H665.31L660.569 124.809H647.326L642.167 109.662H655.737L647.326 88.8427L629.157 135.964L610.058 135.779Z" fill="white"/>
<path fill-rule="evenodd" clip-rule="evenodd" d="M71.1189 -4.0192e-06C87.4386 25.7711 102.933 52.2222 121.208 76.6298C138.122 99.2312 143.927 116.707 142.625 130.925C124.703 76.3347 81.4875 77.0146 45.3777 40.3443C53.9382 26.8956 62.5286 13.4487 71.1189 -4.0192e-06Z" fill="white"/>
<path fill-rule="evenodd" clip-rule="evenodd" d="M124.762 177.372C134.24 162.919 134.421 147.157 126.836 130.275C115.076 106.903 97.454 94.7876 78.3474 85.4575C61.1666 76.3348 49.6138 68.0395 41.5875 60.2505C36.1072 54.9775 28.4358 47.0688 31.0415 38.7456C33.055 32.3163 40.9935 28.7337 49.3168 26.4811C48.8741 27.8446 48.3997 29.2362 47.9551 30.5979C45.4671 31.2797 43.3919 32.1688 41.9125 33.2951C34.9509 38.5364 44.1633 46.2974 48.3399 50.2966C59.9861 61.4571 74.5911 68.9754 88.4582 76.94C102.802 85.1755 115.582 94.4252 125.829 107.639C127.303 109.538 128.702 111.494 130.011 113.511C138.252 126.198 142.21 140.814 140.314 155.897C138.329 166.886 132.848 173.67 124.762 177.372Z" fill="white"/>
<path fill-rule="evenodd" clip-rule="evenodd" d="M74.8822 196.062C73.2217 196.331 71.5649 196.594 69.9043 196.832C98.0159 216.177 118.869 176.868 109.982 150.594C106.664 140.819 99.9697 132.171 90.8769 124.32C84.3897 118.93 77.2525 114.012 69.7567 109.333C56.7824 101.217 42.7117 94.4922 30.9515 84.6578C22.5704 77.6383 13.7726 67.9814 19.1054 56.1913C16.8229 57.8799 14.927 59.8057 13.5952 62.1163C7.93738 71.8031 14.8392 84.7176 21.6514 91.9743C30.9515 101.868 44.6674 107.851 56.633 114.753C64.127 119.077 71.1483 123.491 77.2787 128.052C88.2394 136.643 97.4537 146.742 100.149 162.384C101.154 169.701 100.947 175.564 99.9398 180.514C98.1037 189.485 94.3119 196.981 84.3598 198.135C81.19 198.522 78.0221 197.87 74.8822 196.062Z" fill="white"/>
<path fill-rule="evenodd" clip-rule="evenodd" d="M27.8418 40.8774C24.1396 56.6946 34.4186 64.0708 45.6146 72.6612C63.8022 86.6423 84.715 95.4998 101.956 110.695C110.307 118.041 116.884 125.92 121.327 134.423C124.854 141.65 126.361 148.195 126.567 154.327C127.013 166.885 121.742 190.7 106.013 191.768C111.373 187.887 115.966 182.883 117.683 173.519C120.556 157.616 115.076 141.353 105.183 128.853C98.6083 120.559 90.3429 114.309 81.3397 109.006C78.4931 107.348 75.7099 105.599 72.9268 103.881C54.2648 92.3599 1.7456 67.5675 27.8418 40.8774Z" fill="white"/>
<path d="M63.4816 194.727C71.3528 195.642 79.4071 195.379 87.3456 193.954C88.1432 193.812 88.952 193.653 89.6655 193.27C93.6198 191.146 95.3719 183.435 96.1937 179.421C100.845 156.654 85.3694 136.374 67.1706 124.831C58.1824 119.128 48.5703 114.443 39.3747 109.098C30.166 103.742 21.7027 97.4327 15.1016 88.9226H14.3376C13.1441 88.9226 9.82856 94.9577 9.1692 96.0019C7.57029 98.5347 6.15444 101.185 4.95339 103.931C2.598 109.314 1.10183 115.052 0.408844 120.886C-2.26783 143.427 8.42205 165.481 25.9204 179.364C36.8848 188.064 49.9114 193.148 63.4816 194.727Z" fill="white"/>
</svg>
